<mxfile host="app.diagrams.net" modified="2021-07-17T09:11:28.550Z" agent="5.0 (Windows NT 10.0; Win64; x64) AppleWebKit/537.36 (KHTML, like Gecko) Chrome/91.0.4472.164 Safari/537.36" etag="EkqhSZOv6EScgKRpiETQ" version="14.9.0" type="github">
  <diagram name="Page-1" id="2a216829-ef6e-dabb-86c1-c78162f3ba2b">
    <mxGraphModel dx="2966" dy="1654" grid="1" gridSize="10" guides="1" tooltips="1" connect="1" arrows="1" fold="1" page="1" pageScale="1" pageWidth="2336" pageHeight="1654" background="none" math="0" shadow="0">
      <root>
        <mxCell id="0" />
        <mxCell id="1" parent="0" />
        <mxCell id="NUjjfqa_huzqdR6QL24O-115" style="edgeStyle=none;rounded=0;orthogonalLoop=1;jettySize=auto;html=1;fontSize=11;entryX=0;entryY=0.5;entryDx=0;entryDy=0;" edge="1" parent="1" source="NUjjfqa_huzqdR6QL24O-2" target="NUjjfqa_huzqdR6QL24O-3">
          <mxGeometry relative="1" as="geometry">
            <mxPoint x="1170" y="507" as="targetPoint" />
          </mxGeometry>
        </mxCell>
        <mxCell id="NUjjfqa_huzqdR6QL24O-2" value="HIỆN TẠI&#xa;CHẠY LOCAL&#xa;&#xa;&#xa;" style="swimlane;startSize=0;fontSize=25;" vertex="1" parent="1">
          <mxGeometry x="80" y="82" width="820" height="660" as="geometry" />
        </mxCell>
        <mxCell id="NUjjfqa_huzqdR6QL24O-6" value="CƠ SỞ QUẬN 7" style="swimlane;" vertex="1" parent="NUjjfqa_huzqdR6QL24O-2">
          <mxGeometry x="20" y="220" width="340" height="400" as="geometry" />
        </mxCell>
        <mxCell id="NUjjfqa_huzqdR6QL24O-15" style="edgeStyle=none;rounded=0;orthogonalLoop=1;jettySize=auto;html=1;" edge="1" parent="NUjjfqa_huzqdR6QL24O-6" source="NUjjfqa_huzqdR6QL24O-9" target="NUjjfqa_huzqdR6QL24O-36">
          <mxGeometry relative="1" as="geometry" />
        </mxCell>
        <mxCell id="NUjjfqa_huzqdR6QL24O-9" value="" style="fontColor=#0066CC;verticalAlign=top;verticalLabelPosition=bottom;labelPosition=center;align=center;html=1;outlineConnect=0;fillColor=#CCCCCC;strokeColor=#6881B3;gradientColor=none;gradientDirection=north;strokeWidth=2;shape=mxgraph.networks.storage;" vertex="1" parent="NUjjfqa_huzqdR6QL24O-6">
          <mxGeometry x="250" y="80" width="45" height="80" as="geometry" />
        </mxCell>
        <mxCell id="NUjjfqa_huzqdR6QL24O-14" style="edgeStyle=none;rounded=0;orthogonalLoop=1;jettySize=auto;html=1;entryX=0;entryY=0.5;entryDx=0;entryDy=0;entryPerimeter=0;" edge="1" parent="NUjjfqa_huzqdR6QL24O-6" source="NUjjfqa_huzqdR6QL24O-36" target="NUjjfqa_huzqdR6QL24O-9">
          <mxGeometry relative="1" as="geometry" />
        </mxCell>
        <mxCell id="NUjjfqa_huzqdR6QL24O-16" style="edgeStyle=none;rounded=0;orthogonalLoop=1;jettySize=auto;html=1;entryX=0.16;entryY=0;entryDx=0;entryDy=0;entryPerimeter=0;" edge="1" parent="NUjjfqa_huzqdR6QL24O-6" source="NUjjfqa_huzqdR6QL24O-11" target="NUjjfqa_huzqdR6QL24O-13">
          <mxGeometry relative="1" as="geometry" />
        </mxCell>
        <mxCell id="NUjjfqa_huzqdR6QL24O-37" style="edgeStyle=none;rounded=0;orthogonalLoop=1;jettySize=auto;html=1;" edge="1" parent="NUjjfqa_huzqdR6QL24O-6" source="NUjjfqa_huzqdR6QL24O-11" target="NUjjfqa_huzqdR6QL24O-36">
          <mxGeometry relative="1" as="geometry" />
        </mxCell>
        <mxCell id="NUjjfqa_huzqdR6QL24O-11" value="" style="fontColor=#0066CC;verticalAlign=top;verticalLabelPosition=bottom;labelPosition=center;align=center;html=1;outlineConnect=0;fillColor=#CCCCCC;strokeColor=#6881B3;gradientColor=none;gradientDirection=north;strokeWidth=2;shape=mxgraph.networks.server;" vertex="1" parent="NUjjfqa_huzqdR6QL24O-6">
          <mxGeometry x="15" y="130" width="55" height="60" as="geometry" />
        </mxCell>
        <mxCell id="NUjjfqa_huzqdR6QL24O-17" style="edgeStyle=none;rounded=0;orthogonalLoop=1;jettySize=auto;html=1;entryX=1;entryY=1;entryDx=0;entryDy=0;entryPerimeter=0;" edge="1" parent="NUjjfqa_huzqdR6QL24O-6" source="NUjjfqa_huzqdR6QL24O-13" target="NUjjfqa_huzqdR6QL24O-11">
          <mxGeometry relative="1" as="geometry" />
        </mxCell>
        <mxCell id="NUjjfqa_huzqdR6QL24O-13" value="" style="fontColor=#0066CC;verticalAlign=top;verticalLabelPosition=bottom;labelPosition=center;align=center;html=1;outlineConnect=0;fillColor=#CCCCCC;strokeColor=#6881B3;gradientColor=none;gradientDirection=north;strokeWidth=2;shape=mxgraph.networks.laptop;" vertex="1" parent="NUjjfqa_huzqdR6QL24O-6">
          <mxGeometry x="125" y="200" width="100" height="55" as="geometry" />
        </mxCell>
        <mxCell id="NUjjfqa_huzqdR6QL24O-18" value="DNS SERVER" style="text;html=1;align=center;verticalAlign=middle;resizable=0;points=[];autosize=1;strokeColor=none;" vertex="1" parent="NUjjfqa_huzqdR6QL24O-6">
          <mxGeometry y="200" width="90" height="20" as="geometry" />
        </mxCell>
        <mxCell id="NUjjfqa_huzqdR6QL24O-19" value="DATABASE" style="text;html=1;align=center;verticalAlign=middle;resizable=0;points=[];autosize=1;strokeColor=none;" vertex="1" parent="NUjjfqa_huzqdR6QL24O-6">
          <mxGeometry x="225" y="50" width="80" height="20" as="geometry" />
        </mxCell>
        <mxCell id="NUjjfqa_huzqdR6QL24O-20" value="CLIENT" style="text;html=1;align=center;verticalAlign=middle;resizable=0;points=[];autosize=1;strokeColor=none;" vertex="1" parent="NUjjfqa_huzqdR6QL24O-6">
          <mxGeometry x="145" y="270" width="60" height="20" as="geometry" />
        </mxCell>
        <mxCell id="NUjjfqa_huzqdR6QL24O-21" value="&lt;font style=&quot;font-size: 15px&quot;&gt;Ghi chú:&lt;br&gt;- Số lượng User: 5&lt;br&gt;- Tên miền: kipos.t05&lt;br&gt;- Email gửi thư: không&lt;/font&gt;" style="text;html=1;align=left;verticalAlign=middle;resizable=0;points=[];autosize=1;strokeColor=none;" vertex="1" parent="NUjjfqa_huzqdR6QL24O-6">
          <mxGeometry x="10" y="310" width="160" height="60" as="geometry" />
        </mxCell>
        <mxCell id="NUjjfqa_huzqdR6QL24O-38" style="edgeStyle=none;rounded=0;orthogonalLoop=1;jettySize=auto;html=1;entryX=1;entryY=0.15;entryDx=0;entryDy=0;entryPerimeter=0;" edge="1" parent="NUjjfqa_huzqdR6QL24O-6" source="NUjjfqa_huzqdR6QL24O-36" target="NUjjfqa_huzqdR6QL24O-11">
          <mxGeometry relative="1" as="geometry" />
        </mxCell>
        <mxCell id="NUjjfqa_huzqdR6QL24O-36" value="" style="fontColor=#0066CC;verticalAlign=top;verticalLabelPosition=bottom;labelPosition=center;align=center;html=1;outlineConnect=0;fillColor=#CCCCCC;strokeColor=#6881B3;gradientColor=none;gradientDirection=north;strokeWidth=2;shape=mxgraph.networks.web_server;" vertex="1" parent="NUjjfqa_huzqdR6QL24O-6">
          <mxGeometry x="100" y="40" width="45" height="70" as="geometry" />
        </mxCell>
        <mxCell id="NUjjfqa_huzqdR6QL24O-39" value="WEB SERVER" style="text;html=1;align=center;verticalAlign=middle;resizable=0;points=[];autosize=1;strokeColor=none;" vertex="1" parent="NUjjfqa_huzqdR6QL24O-6">
          <mxGeometry x="10" y="30" width="100" height="20" as="geometry" />
        </mxCell>
        <mxCell id="NUjjfqa_huzqdR6QL24O-22" value="CƠ SỞ TP THỦ ĐỨC" style="swimlane;" vertex="1" parent="NUjjfqa_huzqdR6QL24O-2">
          <mxGeometry x="400" y="220" width="400" height="400" as="geometry" />
        </mxCell>
        <mxCell id="NUjjfqa_huzqdR6QL24O-34" style="edgeStyle=none;rounded=0;orthogonalLoop=1;jettySize=auto;html=1;" edge="1" parent="NUjjfqa_huzqdR6QL24O-22" source="NUjjfqa_huzqdR6QL24O-24" target="NUjjfqa_huzqdR6QL24O-41">
          <mxGeometry relative="1" as="geometry" />
        </mxCell>
        <mxCell id="NUjjfqa_huzqdR6QL24O-24" value="" style="fontColor=#0066CC;verticalAlign=top;verticalLabelPosition=bottom;labelPosition=center;align=center;html=1;outlineConnect=0;fillColor=#CCCCCC;strokeColor=#6881B3;gradientColor=none;gradientDirection=north;strokeWidth=2;shape=mxgraph.networks.storage;" vertex="1" parent="NUjjfqa_huzqdR6QL24O-22">
          <mxGeometry x="30" y="80" width="45" height="80" as="geometry" />
        </mxCell>
        <mxCell id="NUjjfqa_huzqdR6QL24O-25" style="edgeStyle=none;rounded=0;orthogonalLoop=1;jettySize=auto;html=1;exitX=0;exitY=0.5;exitDx=0;exitDy=0;exitPerimeter=0;" edge="1" parent="NUjjfqa_huzqdR6QL24O-22" source="NUjjfqa_huzqdR6QL24O-41">
          <mxGeometry relative="1" as="geometry">
            <mxPoint x="80" y="120" as="targetPoint" />
          </mxGeometry>
        </mxCell>
        <mxCell id="NUjjfqa_huzqdR6QL24O-26" style="edgeStyle=none;rounded=0;orthogonalLoop=1;jettySize=auto;html=1;" edge="1" parent="NUjjfqa_huzqdR6QL24O-22" source="NUjjfqa_huzqdR6QL24O-27" target="NUjjfqa_huzqdR6QL24O-29">
          <mxGeometry relative="1" as="geometry" />
        </mxCell>
        <mxCell id="NUjjfqa_huzqdR6QL24O-43" style="edgeStyle=none;rounded=0;orthogonalLoop=1;jettySize=auto;html=1;" edge="1" parent="NUjjfqa_huzqdR6QL24O-22" source="NUjjfqa_huzqdR6QL24O-27" target="NUjjfqa_huzqdR6QL24O-41">
          <mxGeometry relative="1" as="geometry" />
        </mxCell>
        <mxCell id="NUjjfqa_huzqdR6QL24O-27" value="" style="fontColor=#0066CC;verticalAlign=top;verticalLabelPosition=bottom;labelPosition=center;align=center;html=1;outlineConnect=0;fillColor=#CCCCCC;strokeColor=#6881B3;gradientColor=none;gradientDirection=north;strokeWidth=2;shape=mxgraph.networks.server;" vertex="1" parent="NUjjfqa_huzqdR6QL24O-22">
          <mxGeometry x="300" y="60" width="50" height="70" as="geometry" />
        </mxCell>
        <mxCell id="NUjjfqa_huzqdR6QL24O-28" style="edgeStyle=none;rounded=0;orthogonalLoop=1;jettySize=auto;html=1;entryX=0.5;entryY=1;entryDx=0;entryDy=0;entryPerimeter=0;" edge="1" parent="NUjjfqa_huzqdR6QL24O-22" source="NUjjfqa_huzqdR6QL24O-29" target="NUjjfqa_huzqdR6QL24O-27">
          <mxGeometry relative="1" as="geometry" />
        </mxCell>
        <mxCell id="NUjjfqa_huzqdR6QL24O-29" value="" style="fontColor=#0066CC;verticalAlign=top;verticalLabelPosition=bottom;labelPosition=center;align=center;html=1;outlineConnect=0;fillColor=#CCCCCC;strokeColor=#6881B3;gradientColor=none;gradientDirection=north;strokeWidth=2;shape=mxgraph.networks.laptop;" vertex="1" parent="NUjjfqa_huzqdR6QL24O-22">
          <mxGeometry x="125" y="200" width="100" height="55" as="geometry" />
        </mxCell>
        <mxCell id="NUjjfqa_huzqdR6QL24O-30" value="DNS SERVER" style="text;html=1;align=center;verticalAlign=middle;resizable=0;points=[];autosize=1;strokeColor=none;" vertex="1" parent="NUjjfqa_huzqdR6QL24O-22">
          <mxGeometry x="280" y="160" width="90" height="20" as="geometry" />
        </mxCell>
        <mxCell id="NUjjfqa_huzqdR6QL24O-31" value="DATABASE" style="text;html=1;align=center;verticalAlign=middle;resizable=0;points=[];autosize=1;strokeColor=none;" vertex="1" parent="NUjjfqa_huzqdR6QL24O-22">
          <mxGeometry x="12.5" y="50" width="80" height="20" as="geometry" />
        </mxCell>
        <mxCell id="NUjjfqa_huzqdR6QL24O-32" value="CLIENT" style="text;html=1;align=center;verticalAlign=middle;resizable=0;points=[];autosize=1;strokeColor=none;" vertex="1" parent="NUjjfqa_huzqdR6QL24O-22">
          <mxGeometry x="145" y="270" width="60" height="20" as="geometry" />
        </mxCell>
        <mxCell id="NUjjfqa_huzqdR6QL24O-33" value="&lt;font style=&quot;font-size: 15px&quot;&gt;Ghi chú:&lt;br&gt;- Số lượng User: 2&lt;br&gt;- Tên miền: kipos.t05&lt;br&gt;- Email gửi thư: không&lt;/font&gt;" style="text;html=1;align=left;verticalAlign=middle;resizable=0;points=[];autosize=1;strokeColor=none;" vertex="1" parent="NUjjfqa_huzqdR6QL24O-22">
          <mxGeometry x="10" y="310" width="160" height="60" as="geometry" />
        </mxCell>
        <mxCell id="NUjjfqa_huzqdR6QL24O-42" style="edgeStyle=none;rounded=0;orthogonalLoop=1;jettySize=auto;html=1;" edge="1" parent="NUjjfqa_huzqdR6QL24O-22" source="NUjjfqa_huzqdR6QL24O-41" target="NUjjfqa_huzqdR6QL24O-27">
          <mxGeometry relative="1" as="geometry" />
        </mxCell>
        <mxCell id="NUjjfqa_huzqdR6QL24O-41" value="" style="fontColor=#0066CC;verticalAlign=top;verticalLabelPosition=bottom;labelPosition=center;align=center;html=1;outlineConnect=0;fillColor=#CCCCCC;strokeColor=#6881B3;gradientColor=none;gradientDirection=north;strokeWidth=2;shape=mxgraph.networks.web_server;" vertex="1" parent="NUjjfqa_huzqdR6QL24O-22">
          <mxGeometry x="145" y="30" width="51.5" height="75" as="geometry" />
        </mxCell>
        <mxCell id="NUjjfqa_huzqdR6QL24O-44" value="WEB SERVER" style="text;html=1;align=center;verticalAlign=middle;resizable=0;points=[];autosize=1;strokeColor=none;" vertex="1" parent="NUjjfqa_huzqdR6QL24O-22">
          <mxGeometry x="190" y="30" width="100" height="20" as="geometry" />
        </mxCell>
        <mxCell id="NUjjfqa_huzqdR6QL24O-35" value="SỬ DỤNG ĐỘC LẬP TẠI 2 CƠ SỞ" style="text;html=1;align=center;verticalAlign=middle;resizable=0;points=[];autosize=1;strokeColor=none;" vertex="1" parent="NUjjfqa_huzqdR6QL24O-2">
          <mxGeometry x="20" y="50" width="200" height="20" as="geometry" />
        </mxCell>
        <mxCell id="NUjjfqa_huzqdR6QL24O-45" value="ĐỒNG BỘ DỮ LIỆU TỆP TIN GIỮA 2 SERVER&amp;nbsp; BẰNG CÔNG CỤ FREEFILESYNC THÔNG QUA THIẾT BỊ TRUNG GIAN" style="text;html=1;align=center;verticalAlign=middle;resizable=0;points=[];autosize=1;strokeColor=none;" vertex="1" parent="NUjjfqa_huzqdR6QL24O-2">
          <mxGeometry x="15" y="110" width="670" height="20" as="geometry" />
        </mxCell>
        <mxCell id="NUjjfqa_huzqdR6QL24O-49" value="LẤY CƠ SỞ QUẬN 7 LÀM CHUẨN, BIÊN MỤC TẬP TRUNG TẠI CƠ SỞ QUẬN 7" style="text;html=1;align=center;verticalAlign=middle;resizable=0;points=[];autosize=1;strokeColor=none;" vertex="1" parent="NUjjfqa_huzqdR6QL24O-2">
          <mxGeometry x="20" y="80" width="450" height="20" as="geometry" />
        </mxCell>
        <mxCell id="NUjjfqa_huzqdR6QL24O-46" value="ĐỒNG BỘ CSDL THƯ MỤC, MEST BẰNG CÁCH XUẤT KHẨU BIỂU GHI MEST TỪ CƠ SỞ QUẬN 7,&lt;br&gt;MANG SANG CƠ SỞ QUẬN THỦ ĐỨC NHẬP KHẨU" style="text;html=1;align=left;verticalAlign=middle;resizable=0;points=[];autosize=1;strokeColor=none;" vertex="1" parent="NUjjfqa_huzqdR6QL24O-2">
          <mxGeometry x="20" y="150" width="560" height="30" as="geometry" />
        </mxCell>
        <mxCell id="NUjjfqa_huzqdR6QL24O-163" style="edgeStyle=none;rounded=0;orthogonalLoop=1;jettySize=auto;html=1;fontSize=25;" edge="1" parent="1" source="NUjjfqa_huzqdR6QL24O-3">
          <mxGeometry relative="1" as="geometry">
            <mxPoint x="1200" y="850" as="targetPoint" />
          </mxGeometry>
        </mxCell>
        <mxCell id="NUjjfqa_huzqdR6QL24O-3" value="ĐƯA KIPOS RA INTERNET&#xa;" style="swimlane;startSize=0;fontSize=25;" vertex="1" parent="1">
          <mxGeometry x="1130" y="77" width="1110" height="670" as="geometry" />
        </mxCell>
        <mxCell id="NUjjfqa_huzqdR6QL24O-50" value="SỬ DỤNG SERVER VÀ DATABASE Ở QUẬN 7 ĐỂ PUBLIC DỊCH VỤ&lt;br&gt;CLIENT, WEB PORTAL, WEB ADMIN CÓ THỂ TRUY CẤP TỪ BẤT CỨ NƠI NÀO CÓ INTERNET" style="text;html=1;align=left;verticalAlign=middle;resizable=0;points=[];autosize=1;strokeColor=none;" vertex="1" parent="NUjjfqa_huzqdR6QL24O-3">
          <mxGeometry x="10" y="50" width="540" height="30" as="geometry" />
        </mxCell>
        <mxCell id="NUjjfqa_huzqdR6QL24O-51" value="CƠ SỞ QUẬN 7" style="swimlane;" vertex="1" parent="NUjjfqa_huzqdR6QL24O-3">
          <mxGeometry x="20" y="165" width="310" height="475" as="geometry" />
        </mxCell>
        <mxCell id="NUjjfqa_huzqdR6QL24O-52" style="edgeStyle=none;rounded=0;orthogonalLoop=1;jettySize=auto;html=1;" edge="1" parent="NUjjfqa_huzqdR6QL24O-51" source="NUjjfqa_huzqdR6QL24O-53" target="NUjjfqa_huzqdR6QL24O-65">
          <mxGeometry relative="1" as="geometry" />
        </mxCell>
        <mxCell id="NUjjfqa_huzqdR6QL24O-53" value="" style="fontColor=#0066CC;verticalAlign=top;verticalLabelPosition=bottom;labelPosition=center;align=center;html=1;outlineConnect=0;fillColor=#CCCCCC;strokeColor=#6881B3;gradientColor=none;gradientDirection=north;strokeWidth=2;shape=mxgraph.networks.storage;" vertex="1" parent="NUjjfqa_huzqdR6QL24O-51">
          <mxGeometry x="225" y="80" width="45" height="80" as="geometry" />
        </mxCell>
        <mxCell id="NUjjfqa_huzqdR6QL24O-54" style="edgeStyle=none;rounded=0;orthogonalLoop=1;jettySize=auto;html=1;entryX=0;entryY=0.5;entryDx=0;entryDy=0;entryPerimeter=0;" edge="1" parent="NUjjfqa_huzqdR6QL24O-51" source="NUjjfqa_huzqdR6QL24O-65" target="NUjjfqa_huzqdR6QL24O-53">
          <mxGeometry relative="1" as="geometry" />
        </mxCell>
        <mxCell id="NUjjfqa_huzqdR6QL24O-61" value="DATABASE" style="text;html=1;align=center;verticalAlign=middle;resizable=0;points=[];autosize=1;strokeColor=none;" vertex="1" parent="NUjjfqa_huzqdR6QL24O-51">
          <mxGeometry x="210" y="50" width="80" height="20" as="geometry" />
        </mxCell>
        <mxCell id="NUjjfqa_huzqdR6QL24O-65" value="" style="fontColor=#0066CC;verticalAlign=top;verticalLabelPosition=bottom;labelPosition=center;align=center;html=1;outlineConnect=0;fillColor=#CCCCCC;strokeColor=#6881B3;gradientColor=none;gradientDirection=north;strokeWidth=2;shape=mxgraph.networks.web_server;" vertex="1" parent="NUjjfqa_huzqdR6QL24O-51">
          <mxGeometry x="65" y="90" width="45" height="70" as="geometry" />
        </mxCell>
        <mxCell id="NUjjfqa_huzqdR6QL24O-66" value="WEB SERVER" style="text;html=1;align=center;verticalAlign=middle;resizable=0;points=[];autosize=1;strokeColor=none;" vertex="1" parent="NUjjfqa_huzqdR6QL24O-51">
          <mxGeometry x="10" y="60" width="100" height="20" as="geometry" />
        </mxCell>
        <mxCell id="NUjjfqa_huzqdR6QL24O-162" style="edgeStyle=none;rounded=0;orthogonalLoop=1;jettySize=auto;html=1;fontSize=11;" edge="1" parent="NUjjfqa_huzqdR6QL24O-3" source="NUjjfqa_huzqdR6QL24O-59" target="NUjjfqa_huzqdR6QL24O-65">
          <mxGeometry relative="1" as="geometry" />
        </mxCell>
        <mxCell id="NUjjfqa_huzqdR6QL24O-59" value="" style="fontColor=#0066CC;verticalAlign=top;verticalLabelPosition=bottom;labelPosition=center;align=center;html=1;outlineConnect=0;fillColor=#CCCCCC;strokeColor=#6881B3;gradientColor=none;gradientDirection=north;strokeWidth=2;shape=mxgraph.networks.laptop;" vertex="1" parent="NUjjfqa_huzqdR6QL24O-3">
          <mxGeometry x="400" y="560" width="100" height="55" as="geometry" />
        </mxCell>
        <mxCell id="NUjjfqa_huzqdR6QL24O-62" value="CLIENT" style="text;html=1;align=center;verticalAlign=middle;resizable=0;points=[];autosize=1;strokeColor=none;" vertex="1" parent="NUjjfqa_huzqdR6QL24O-3">
          <mxGeometry x="420" y="630" width="60" height="20" as="geometry" />
        </mxCell>
        <mxCell id="NUjjfqa_huzqdR6QL24O-63" value="&lt;font style=&quot;font-size: 15px&quot;&gt;Ghi chú:&lt;br&gt;- Số lượng User: 7&lt;br&gt;- Tên miền: lib.dhcsnd.edu.vn (đề xuất tên miền)&lt;br&gt;- Email gửi thư: yêu cầu tạo email để cấu hình&lt;/font&gt;" style="text;html=1;align=left;verticalAlign=middle;resizable=0;points=[];autosize=1;strokeColor=none;" vertex="1" parent="NUjjfqa_huzqdR6QL24O-3">
          <mxGeometry x="20" y="90" width="340" height="60" as="geometry" />
        </mxCell>
        <mxCell id="NUjjfqa_huzqdR6QL24O-87" value="PHÍA THƯ VIỆN" style="swimlane;fontSize=11;" vertex="1" parent="NUjjfqa_huzqdR6QL24O-3">
          <mxGeometry x="370" y="190" width="660" height="140" as="geometry" />
        </mxCell>
        <mxCell id="NUjjfqa_huzqdR6QL24O-88" value="&lt;ol style=&quot;font-size: 18px&quot;&gt;&lt;li&gt;Ngắt hoạt động máy chủ TP quận Thủ Đức&lt;/li&gt;&lt;li&gt;Sẵn sàng tên miền vd: lib.dhcsnd.edu.vn&lt;/li&gt;&lt;li&gt;NAT ip máy chủ ra IP public&lt;/li&gt;&lt;li&gt;Trỏ tên miền về IP public&lt;/li&gt;&lt;li&gt;Cung cấp tài khoản truy cập máy chủ để phía cty Hiện Đại truy cập&lt;/li&gt;&lt;/ol&gt;" style="text;html=1;align=left;verticalAlign=middle;resizable=0;points=[];autosize=1;strokeColor=none;fontSize=11;" vertex="1" parent="NUjjfqa_huzqdR6QL24O-87">
          <mxGeometry x="10" y="30" width="590" height="110" as="geometry" />
        </mxCell>
        <mxCell id="NUjjfqa_huzqdR6QL24O-114" value="INTERNET" style="ellipse;shape=cloud;whiteSpace=wrap;html=1;fontSize=11;" vertex="1" parent="NUjjfqa_huzqdR6QL24O-3">
          <mxGeometry x="360" y="430" width="120" height="80" as="geometry" />
        </mxCell>
        <mxCell id="NUjjfqa_huzqdR6QL24O-110" value="PHÍA CÔNG TY HIỆN ĐẠI" style="swimlane;fontSize=11;" vertex="1" parent="NUjjfqa_huzqdR6QL24O-3">
          <mxGeometry x="660" y="380" width="350" height="160" as="geometry" />
        </mxCell>
        <mxCell id="NUjjfqa_huzqdR6QL24O-111" value="&lt;ol style=&quot;font-size: 18px&quot;&gt;&lt;li&gt;Cấu hình lại các dịch vụ trên máy chủ&lt;/li&gt;&lt;li&gt;Tăng số lượng user lên thành 7 user&lt;/li&gt;&lt;/ol&gt;" style="text;html=1;align=left;verticalAlign=middle;resizable=0;points=[];autosize=1;strokeColor=none;fontSize=11;" vertex="1" parent="NUjjfqa_huzqdR6QL24O-110">
          <mxGeometry x="-10" y="65" width="360" height="70" as="geometry" />
        </mxCell>
        <mxCell id="NUjjfqa_huzqdR6QL24O-161" style="edgeStyle=none;rounded=0;orthogonalLoop=1;jettySize=auto;html=1;entryX=0.15;entryY=0.5;entryDx=0;entryDy=0;entryPerimeter=0;fontSize=11;" edge="1" parent="NUjjfqa_huzqdR6QL24O-3" source="NUjjfqa_huzqdR6QL24O-65" target="NUjjfqa_huzqdR6QL24O-59">
          <mxGeometry relative="1" as="geometry" />
        </mxCell>
        <mxCell id="NUjjfqa_huzqdR6QL24O-4" value="SAU KHI ỔN ĐỊNH DỊCH BỆNH&#xa;CHẠY LOCAL&#xa;&#xa;" style="swimlane;startSize=0;fontSize=25;align=center;" vertex="1" parent="1">
          <mxGeometry x="40" y="930" width="2200" height="670" as="geometry" />
        </mxCell>
        <mxCell id="NUjjfqa_huzqdR6QL24O-117" value="CƠ SỞ QUẬN 7" style="swimlane;" vertex="1" parent="NUjjfqa_huzqdR6QL24O-4">
          <mxGeometry x="1275" y="240" width="340" height="400" as="geometry" />
        </mxCell>
        <mxCell id="NUjjfqa_huzqdR6QL24O-118" style="edgeStyle=none;rounded=0;orthogonalLoop=1;jettySize=auto;html=1;" edge="1" parent="NUjjfqa_huzqdR6QL24O-117" source="NUjjfqa_huzqdR6QL24O-119" target="NUjjfqa_huzqdR6QL24O-131">
          <mxGeometry relative="1" as="geometry" />
        </mxCell>
        <mxCell id="NUjjfqa_huzqdR6QL24O-119" value="" style="fontColor=#0066CC;verticalAlign=top;verticalLabelPosition=bottom;labelPosition=center;align=center;html=1;outlineConnect=0;fillColor=#CCCCCC;strokeColor=#6881B3;gradientColor=none;gradientDirection=north;strokeWidth=2;shape=mxgraph.networks.storage;" vertex="1" parent="NUjjfqa_huzqdR6QL24O-117">
          <mxGeometry x="250" y="80" width="45" height="80" as="geometry" />
        </mxCell>
        <mxCell id="NUjjfqa_huzqdR6QL24O-120" style="edgeStyle=none;rounded=0;orthogonalLoop=1;jettySize=auto;html=1;entryX=0;entryY=0.5;entryDx=0;entryDy=0;entryPerimeter=0;" edge="1" parent="NUjjfqa_huzqdR6QL24O-117" source="NUjjfqa_huzqdR6QL24O-131" target="NUjjfqa_huzqdR6QL24O-119">
          <mxGeometry relative="1" as="geometry" />
        </mxCell>
        <mxCell id="NUjjfqa_huzqdR6QL24O-121" style="edgeStyle=none;rounded=0;orthogonalLoop=1;jettySize=auto;html=1;entryX=0.16;entryY=0;entryDx=0;entryDy=0;entryPerimeter=0;" edge="1" parent="NUjjfqa_huzqdR6QL24O-117" source="NUjjfqa_huzqdR6QL24O-123" target="NUjjfqa_huzqdR6QL24O-125">
          <mxGeometry relative="1" as="geometry" />
        </mxCell>
        <mxCell id="NUjjfqa_huzqdR6QL24O-122" style="edgeStyle=none;rounded=0;orthogonalLoop=1;jettySize=auto;html=1;" edge="1" parent="NUjjfqa_huzqdR6QL24O-117" source="NUjjfqa_huzqdR6QL24O-123" target="NUjjfqa_huzqdR6QL24O-131">
          <mxGeometry relative="1" as="geometry" />
        </mxCell>
        <mxCell id="NUjjfqa_huzqdR6QL24O-123" value="" style="fontColor=#0066CC;verticalAlign=top;verticalLabelPosition=bottom;labelPosition=center;align=center;html=1;outlineConnect=0;fillColor=#CCCCCC;strokeColor=#6881B3;gradientColor=none;gradientDirection=north;strokeWidth=2;shape=mxgraph.networks.server;" vertex="1" parent="NUjjfqa_huzqdR6QL24O-117">
          <mxGeometry x="15" y="130" width="55" height="60" as="geometry" />
        </mxCell>
        <mxCell id="NUjjfqa_huzqdR6QL24O-124" style="edgeStyle=none;rounded=0;orthogonalLoop=1;jettySize=auto;html=1;entryX=1;entryY=1;entryDx=0;entryDy=0;entryPerimeter=0;" edge="1" parent="NUjjfqa_huzqdR6QL24O-117" source="NUjjfqa_huzqdR6QL24O-125" target="NUjjfqa_huzqdR6QL24O-123">
          <mxGeometry relative="1" as="geometry" />
        </mxCell>
        <mxCell id="NUjjfqa_huzqdR6QL24O-125" value="" style="fontColor=#0066CC;verticalAlign=top;verticalLabelPosition=bottom;labelPosition=center;align=center;html=1;outlineConnect=0;fillColor=#CCCCCC;strokeColor=#6881B3;gradientColor=none;gradientDirection=north;strokeWidth=2;shape=mxgraph.networks.laptop;" vertex="1" parent="NUjjfqa_huzqdR6QL24O-117">
          <mxGeometry x="125" y="200" width="100" height="55" as="geometry" />
        </mxCell>
        <mxCell id="NUjjfqa_huzqdR6QL24O-126" value="DNS SERVER" style="text;html=1;align=center;verticalAlign=middle;resizable=0;points=[];autosize=1;strokeColor=none;" vertex="1" parent="NUjjfqa_huzqdR6QL24O-117">
          <mxGeometry y="200" width="90" height="20" as="geometry" />
        </mxCell>
        <mxCell id="NUjjfqa_huzqdR6QL24O-127" value="DATABASE" style="text;html=1;align=center;verticalAlign=middle;resizable=0;points=[];autosize=1;strokeColor=none;" vertex="1" parent="NUjjfqa_huzqdR6QL24O-117">
          <mxGeometry x="225" y="50" width="80" height="20" as="geometry" />
        </mxCell>
        <mxCell id="NUjjfqa_huzqdR6QL24O-128" value="CLIENT" style="text;html=1;align=center;verticalAlign=middle;resizable=0;points=[];autosize=1;strokeColor=none;" vertex="1" parent="NUjjfqa_huzqdR6QL24O-117">
          <mxGeometry x="145" y="270" width="60" height="20" as="geometry" />
        </mxCell>
        <mxCell id="NUjjfqa_huzqdR6QL24O-129" value="&lt;font style=&quot;font-size: 15px&quot;&gt;Ghi chú:&lt;br&gt;- Số lượng User: 5&lt;br&gt;- Tên miền: kipos.t05&lt;br&gt;- Email gửi thư: không&lt;/font&gt;" style="text;html=1;align=left;verticalAlign=middle;resizable=0;points=[];autosize=1;strokeColor=none;" vertex="1" parent="NUjjfqa_huzqdR6QL24O-117">
          <mxGeometry x="10" y="310" width="160" height="60" as="geometry" />
        </mxCell>
        <mxCell id="NUjjfqa_huzqdR6QL24O-130" style="edgeStyle=none;rounded=0;orthogonalLoop=1;jettySize=auto;html=1;entryX=1;entryY=0.15;entryDx=0;entryDy=0;entryPerimeter=0;" edge="1" parent="NUjjfqa_huzqdR6QL24O-117" source="NUjjfqa_huzqdR6QL24O-131" target="NUjjfqa_huzqdR6QL24O-123">
          <mxGeometry relative="1" as="geometry" />
        </mxCell>
        <mxCell id="NUjjfqa_huzqdR6QL24O-131" value="" style="fontColor=#0066CC;verticalAlign=top;verticalLabelPosition=bottom;labelPosition=center;align=center;html=1;outlineConnect=0;fillColor=#CCCCCC;strokeColor=#6881B3;gradientColor=none;gradientDirection=north;strokeWidth=2;shape=mxgraph.networks.web_server;" vertex="1" parent="NUjjfqa_huzqdR6QL24O-117">
          <mxGeometry x="100" y="40" width="45" height="70" as="geometry" />
        </mxCell>
        <mxCell id="NUjjfqa_huzqdR6QL24O-132" value="WEB SERVER" style="text;html=1;align=center;verticalAlign=middle;resizable=0;points=[];autosize=1;strokeColor=none;" vertex="1" parent="NUjjfqa_huzqdR6QL24O-117">
          <mxGeometry x="10" y="30" width="100" height="20" as="geometry" />
        </mxCell>
        <mxCell id="NUjjfqa_huzqdR6QL24O-133" value="CƠ SỞ TP THỦ ĐỨC" style="swimlane;" vertex="1" parent="NUjjfqa_huzqdR6QL24O-4">
          <mxGeometry x="1655" y="240" width="400" height="400" as="geometry" />
        </mxCell>
        <mxCell id="NUjjfqa_huzqdR6QL24O-134" style="edgeStyle=none;rounded=0;orthogonalLoop=1;jettySize=auto;html=1;" edge="1" parent="NUjjfqa_huzqdR6QL24O-133" source="NUjjfqa_huzqdR6QL24O-135" target="NUjjfqa_huzqdR6QL24O-147">
          <mxGeometry relative="1" as="geometry" />
        </mxCell>
        <mxCell id="NUjjfqa_huzqdR6QL24O-135" value="" style="fontColor=#0066CC;verticalAlign=top;verticalLabelPosition=bottom;labelPosition=center;align=center;html=1;outlineConnect=0;fillColor=#CCCCCC;strokeColor=#6881B3;gradientColor=none;gradientDirection=north;strokeWidth=2;shape=mxgraph.networks.storage;" vertex="1" parent="NUjjfqa_huzqdR6QL24O-133">
          <mxGeometry x="30" y="80" width="45" height="80" as="geometry" />
        </mxCell>
        <mxCell id="NUjjfqa_huzqdR6QL24O-136" style="edgeStyle=none;rounded=0;orthogonalLoop=1;jettySize=auto;html=1;exitX=0;exitY=0.5;exitDx=0;exitDy=0;exitPerimeter=0;" edge="1" parent="NUjjfqa_huzqdR6QL24O-133" source="NUjjfqa_huzqdR6QL24O-147">
          <mxGeometry relative="1" as="geometry">
            <mxPoint x="80" y="120" as="targetPoint" />
          </mxGeometry>
        </mxCell>
        <mxCell id="NUjjfqa_huzqdR6QL24O-137" style="edgeStyle=none;rounded=0;orthogonalLoop=1;jettySize=auto;html=1;" edge="1" parent="NUjjfqa_huzqdR6QL24O-133" source="NUjjfqa_huzqdR6QL24O-139" target="NUjjfqa_huzqdR6QL24O-141">
          <mxGeometry relative="1" as="geometry" />
        </mxCell>
        <mxCell id="NUjjfqa_huzqdR6QL24O-138" style="edgeStyle=none;rounded=0;orthogonalLoop=1;jettySize=auto;html=1;" edge="1" parent="NUjjfqa_huzqdR6QL24O-133" source="NUjjfqa_huzqdR6QL24O-139" target="NUjjfqa_huzqdR6QL24O-147">
          <mxGeometry relative="1" as="geometry" />
        </mxCell>
        <mxCell id="NUjjfqa_huzqdR6QL24O-139" value="" style="fontColor=#0066CC;verticalAlign=top;verticalLabelPosition=bottom;labelPosition=center;align=center;html=1;outlineConnect=0;fillColor=#CCCCCC;strokeColor=#6881B3;gradientColor=none;gradientDirection=north;strokeWidth=2;shape=mxgraph.networks.server;" vertex="1" parent="NUjjfqa_huzqdR6QL24O-133">
          <mxGeometry x="300" y="60" width="50" height="70" as="geometry" />
        </mxCell>
        <mxCell id="NUjjfqa_huzqdR6QL24O-140" style="edgeStyle=none;rounded=0;orthogonalLoop=1;jettySize=auto;html=1;entryX=0.5;entryY=1;entryDx=0;entryDy=0;entryPerimeter=0;" edge="1" parent="NUjjfqa_huzqdR6QL24O-133" source="NUjjfqa_huzqdR6QL24O-141" target="NUjjfqa_huzqdR6QL24O-139">
          <mxGeometry relative="1" as="geometry" />
        </mxCell>
        <mxCell id="NUjjfqa_huzqdR6QL24O-141" value="" style="fontColor=#0066CC;verticalAlign=top;verticalLabelPosition=bottom;labelPosition=center;align=center;html=1;outlineConnect=0;fillColor=#CCCCCC;strokeColor=#6881B3;gradientColor=none;gradientDirection=north;strokeWidth=2;shape=mxgraph.networks.laptop;" vertex="1" parent="NUjjfqa_huzqdR6QL24O-133">
          <mxGeometry x="125" y="200" width="100" height="55" as="geometry" />
        </mxCell>
        <mxCell id="NUjjfqa_huzqdR6QL24O-142" value="DNS SERVER" style="text;html=1;align=center;verticalAlign=middle;resizable=0;points=[];autosize=1;strokeColor=none;" vertex="1" parent="NUjjfqa_huzqdR6QL24O-133">
          <mxGeometry x="280" y="160" width="90" height="20" as="geometry" />
        </mxCell>
        <mxCell id="NUjjfqa_huzqdR6QL24O-143" value="DATABASE" style="text;html=1;align=center;verticalAlign=middle;resizable=0;points=[];autosize=1;strokeColor=none;" vertex="1" parent="NUjjfqa_huzqdR6QL24O-133">
          <mxGeometry x="12.5" y="50" width="80" height="20" as="geometry" />
        </mxCell>
        <mxCell id="NUjjfqa_huzqdR6QL24O-144" value="CLIENT" style="text;html=1;align=center;verticalAlign=middle;resizable=0;points=[];autosize=1;strokeColor=none;" vertex="1" parent="NUjjfqa_huzqdR6QL24O-133">
          <mxGeometry x="145" y="270" width="60" height="20" as="geometry" />
        </mxCell>
        <mxCell id="NUjjfqa_huzqdR6QL24O-145" value="&lt;font style=&quot;font-size: 15px&quot;&gt;Ghi chú:&lt;br&gt;- Số lượng User: 2&lt;br&gt;- Tên miền: kipos.t05&lt;br&gt;- Email gửi thư: không&lt;/font&gt;" style="text;html=1;align=left;verticalAlign=middle;resizable=0;points=[];autosize=1;strokeColor=none;" vertex="1" parent="NUjjfqa_huzqdR6QL24O-133">
          <mxGeometry x="10" y="310" width="160" height="60" as="geometry" />
        </mxCell>
        <mxCell id="NUjjfqa_huzqdR6QL24O-146" style="edgeStyle=none;rounded=0;orthogonalLoop=1;jettySize=auto;html=1;" edge="1" parent="NUjjfqa_huzqdR6QL24O-133" source="NUjjfqa_huzqdR6QL24O-147" target="NUjjfqa_huzqdR6QL24O-139">
          <mxGeometry relative="1" as="geometry" />
        </mxCell>
        <mxCell id="NUjjfqa_huzqdR6QL24O-147" value="" style="fontColor=#0066CC;verticalAlign=top;verticalLabelPosition=bottom;labelPosition=center;align=center;html=1;outlineConnect=0;fillColor=#CCCCCC;strokeColor=#6881B3;gradientColor=none;gradientDirection=north;strokeWidth=2;shape=mxgraph.networks.web_server;" vertex="1" parent="NUjjfqa_huzqdR6QL24O-133">
          <mxGeometry x="145" y="30" width="51.5" height="75" as="geometry" />
        </mxCell>
        <mxCell id="NUjjfqa_huzqdR6QL24O-148" value="WEB SERVER" style="text;html=1;align=center;verticalAlign=middle;resizable=0;points=[];autosize=1;strokeColor=none;" vertex="1" parent="NUjjfqa_huzqdR6QL24O-133">
          <mxGeometry x="190" y="30" width="100" height="20" as="geometry" />
        </mxCell>
        <mxCell id="NUjjfqa_huzqdR6QL24O-149" value="SỬ DỤNG ĐỘC LẬP TẠI 2 CƠ SỞ" style="text;html=1;align=center;verticalAlign=middle;resizable=0;points=[];autosize=1;strokeColor=none;" vertex="1" parent="NUjjfqa_huzqdR6QL24O-4">
          <mxGeometry x="1275" y="60" width="200" height="20" as="geometry" />
        </mxCell>
        <mxCell id="NUjjfqa_huzqdR6QL24O-150" value="ĐỒNG BỘ DỮ LIỆU TỆP TIN GIỮA 2 SERVER&amp;nbsp; BẰNG CÔNG CỤ FREEFILESYNC THÔNG QUA THIẾT BỊ TRUNG GIAN" style="text;html=1;align=center;verticalAlign=middle;resizable=0;points=[];autosize=1;strokeColor=none;" vertex="1" parent="NUjjfqa_huzqdR6QL24O-4">
          <mxGeometry x="1275" y="140" width="670" height="20" as="geometry" />
        </mxCell>
        <mxCell id="NUjjfqa_huzqdR6QL24O-151" value="LẤY CƠ SỞ QUẬN 7 LÀM CHUẨN, BIÊN MỤC TẬP TRUNG TẠI CƠ SỞ QUẬN 7" style="text;html=1;align=center;verticalAlign=middle;resizable=0;points=[];autosize=1;strokeColor=none;" vertex="1" parent="NUjjfqa_huzqdR6QL24O-4">
          <mxGeometry x="1275" y="100" width="450" height="20" as="geometry" />
        </mxCell>
        <mxCell id="NUjjfqa_huzqdR6QL24O-152" value="ĐỒNG BỘ CSDL THƯ MỤC, MEST BẰNG CÁCH XUẤT KHẨU BIỂU GHI MEST TỪ CƠ SỞ QUẬN 7,&lt;br&gt;MANG SANG CƠ SỞ QUẬN THỦ ĐỨC NHẬP KHẨU" style="text;html=1;align=left;verticalAlign=middle;resizable=0;points=[];autosize=1;strokeColor=none;" vertex="1" parent="NUjjfqa_huzqdR6QL24O-4">
          <mxGeometry x="1275" y="180" width="560" height="30" as="geometry" />
        </mxCell>
        <mxCell id="NUjjfqa_huzqdR6QL24O-153" value="PHÍA THƯ VIỆN" style="swimlane;fontSize=11;" vertex="1" parent="NUjjfqa_huzqdR6QL24O-4">
          <mxGeometry x="30" y="110" width="580" height="140" as="geometry" />
        </mxCell>
        <mxCell id="NUjjfqa_huzqdR6QL24O-154" value="&lt;ol style=&quot;font-size: 20px&quot;&gt;&lt;li&gt;Thông báo cho bên Hiện Đại chuẩn bị đưa KIPOS về local&lt;/li&gt;&lt;li&gt;Cung cấp tài khoản truy cập máy chủ cả 2 cơ sở&lt;/li&gt;&lt;/ol&gt;" style="text;html=1;align=left;verticalAlign=middle;resizable=0;points=[];autosize=1;strokeColor=none;fontSize=11;" vertex="1" parent="NUjjfqa_huzqdR6QL24O-153">
          <mxGeometry x="10" y="50" width="570" height="70" as="geometry" />
        </mxCell>
        <mxCell id="NUjjfqa_huzqdR6QL24O-155" value="PHÍA CÔNG TY HIỆN ĐẠI" style="swimlane;fontSize=11;" vertex="1" parent="NUjjfqa_huzqdR6QL24O-4">
          <mxGeometry x="30" y="340" width="1150" height="260" as="geometry" />
        </mxCell>
        <mxCell id="NUjjfqa_huzqdR6QL24O-156" value="" style="group" vertex="1" connectable="0" parent="NUjjfqa_huzqdR6QL24O-155">
          <mxGeometry x="-20" y="20" width="870" height="140" as="geometry" />
        </mxCell>
        <mxCell id="NUjjfqa_huzqdR6QL24O-157" value="&lt;ol style=&quot;font-size: 20px&quot;&gt;&lt;li&gt;Chuẩn bị kịch bản để đồng bộ lại CSDL&lt;/li&gt;&lt;li&gt;Hỗ trợ Thư viện đồng bộ dữ liệu tệp tin và MEST từ cơ sở quận 7 sang cơ sở TP Thủ Đức&lt;/li&gt;&lt;li&gt;Giảm số lượng user ở quận 7 xuống thành 5 user&lt;/li&gt;&lt;li&gt;Cấu hình lại dịch vụ máy chủ cở sở quận 7&lt;/li&gt;&lt;li&gt;kiểm tra dịch vụ máy chủ cơ sở quận Thủ Đức&lt;/li&gt;&lt;/ol&gt;" style="text;html=1;align=left;verticalAlign=middle;resizable=0;points=[];autosize=1;strokeColor=none;fontSize=11;" vertex="1" parent="NUjjfqa_huzqdR6QL24O-156">
          <mxGeometry x="10" y="15" width="860" height="110" as="geometry" />
        </mxCell>
      </root>
    </mxGraphModel>
  </diagram>
</mxfile>
